PathFileType	4	(X/Y/Z)	c:/Users/goper/Files/vsCode/490R/osim_files/A01/A01_Slow_05.trc
DataRate	CameraRate	NumFrames	NumMarkers	Units                	OrigDataRate	OrigDataStartFrame	OrigNumFrames
120.00	120.00	10	36	mm	120.0	593	1184
                Frame#	Time	Mobility_markerset:LPSIS			Mobility_markerset:LASIS			Mobility_markerset:LTH1			Mobility_markerset:LTH2			Mobility_markerset:LTH3			Mobility_markerset:LTH4			Mobility_markerset:LLFE			Mobility_markerset:LMFE			Mobility_markerset:LSH1			Mobility_markerset:LSH2			Mobility_markerset:LSH3			Mobility_markerset:LSH4			Mobility_markerset:LLMAL			Mobility_markerset:LMMAL			Mobility_markerset:LCAL			Mobility_markerset:LMTP5			Mobility_markerset:LTOE			Mobility_markerset:LMTP1			Mobility_markerset:RPSIS			Mobility_markerset:RASIS			Mobility_markerset:RTH1			Mobility_markerset:RTH2			Mobility_markerset:RTH3			Mobility_markerset:RTH4			Mobility_markerset:RLFE			Mobility_markerset:RMFE			Mobility_markerset:RSH1			Mobility_markerset:RSH2			Mobility_markerset:RSH3			Mobility_markerset:RSH4			Mobility_markerset:RLMAL			Mobility_markerset:RMMAL			Mobility_markerset:RCAL			Mobility_markerset:RMTP1			Mobility_markerset:RTOE			Mobility_markerset:RMTP5		
		X1	Y1	Z1	X2	Y2	Z2	X3	Y3	Z3	X4	Y4	Z4	X5	Y5	Z5	X6	Y6	Z6	X7	Y7	Z7	X8	Y8	Z8	X9	Y9	Z9	X10	Y10	Z10	X11	Y11	Z11	X12	Y12	Z12	X13	Y13	Z13	X14	Y14	Z14	X15	Y15	Z15	X16	Y16	Z16	X17	Y17	Z17	X18	Y18	Z18	X19	Y19	Z19	X20	Y20	Z20	X21	Y21	Z21	X22	Y22	Z22	X23	Y23	Z23	X24	Y24	Z24	X25	Y25	Z25	X26	Y26	Z26	X27	Y27	Z27	X28	Y28	Z28	X29	Y29	Z29	X30	Y30	Z30	X31	Y31	Z31	X32	Y32	Z32	X33	Y33	Z33	X34	Y34	Z34	X35	Y35	Z35	X36	Y36	Z36

593	4.93333	-263.37903	1019.29498	357.42502	-507.07193	993.52875	424.86224	-519.65924	680.38867	480.42413	-544.18195	640.70178	469.51300	-571.05371	708.63904	469.70355	-587.18341	666.82483	457.25668	-612.05927	541.32098	424.28464	-615.82819	547.87634	286.95679	-628.39972	373.53448	416.83255	-644.18109	328.99265	419.99741	-688.45593	388.80801	411.14334	-694.65625	342.28650	412.18634	-739.35931	96.52771	401.66589	-724.13672	91.40605	318.95660	-668.33398	48.83560	367.20413	-888.65045	90.88720	409.82474	-902.26721	119.92997	340.10666	-880.02686	96.96208	309.57843	-259.76718	1023.87836	255.99077	-484.35504	964.44385	161.98087	-279.76987	664.96655	115.42511	-280.26456	621.95764	124.18497	-342.31253	657.96521	115.06351	-333.18979	616.93842	121.49172	-290.01984	475.54132	167.98721	-302.93280	491.62952	287.19922	-124.69714	329.24341	166.06465	-108.58842	287.24829	168.38051	-179.89394	301.54132	164.90785	-156.44164	262.60623	166.88181	-55.60043	115.38608	205.67004	-83.91322	127.84018	289.95200	5.33629	99.56310	255.68579	-190.25725	41.60083	294.27853	-228.28012	49.20885	246.89250	-168.87526	33.31750	180.71501
594	4.94167	-274.50827	1018.06671	358.33316	-518.73804	992.51715	425.83755	-529.68445	679.02832	481.33798	-554.21295	639.18909	470.51749	-580.98065	707.18353	470.46191	-597.13837	665.34875	458.04123	0.00000	0.00000	0.00000	-622.97656	548.29895	287.02039	-633.42810	373.40692	417.10287	-648.63159	328.58939	420.22098	-693.67084	387.90021	411.52090	-699.38477	341.10529	412.48538	-740.85315	95.47375	401.54150	-725.63843	90.46157	319.01434	-669.62329	48.40591	366.62021	-889.74799	87.59157	409.78729	-904.54218	116.97474	339.97653	-880.65375	93.76907	309.43167	-270.92264	1022.60803	256.88754	-494.59143	962.07550	162.64687	-288.69360	664.23083	116.40181	-289.90866	620.76855	124.31183	-351.58875	656.96857	115.34723	-342.37030	615.83435	122.05630	-298.88260	474.90515	167.79024	-311.76596	490.32614	287.20197	-130.23721	331.04037	166.19966	-113.46298	289.23254	168.42488	-184.79724	302.25592	164.92635	-161.06850	264.04507	166.77136	-57.54037	118.14150	205.18243	-86.03018	130.12779	289.55997	3.62387	103.50941	255.31255	-190.52487	41.70274	294.15598	-228.51392	49.10861	246.57538	-169.09340	33.43324	180.76653
595	4.95000	-285.84119	1017.17755	359.27881	-530.67310	991.80090	426.75595	-539.01740	677.77509	482.36304	-563.37250	638.00323	471.60336	-590.67224	705.93787	471.51944	-606.46167	664.00061	459.11578	0.00000	0.00000	0.00000	-630.33026	548.14343	287.87234	-638.45465	373.30609	417.51395	-653.13397	328.35574	420.64676	-699.49622	386.70212	411.40683	-704.11353	340.26633	412.88837	-742.16290	94.48022	401.74631	-726.72742	90.00745	319.41943	-670.22607	48.48442	366.85599	-891.07941	84.63645	410.09311	-905.32825	113.23609	340.43704	-882.12274	91.09736	309.55286	-282.18680	1021.53119	257.77084	-505.66827	960.06073	163.27341	-298.73218	663.23108	116.63937	-299.50284	619.99957	124.80935	-361.25516	655.92188	115.84960	-351.94421	614.88605	122.44960	-307.24661	473.92047	168.08647	-321.04993	488.94336	287.25272	-136.20811	332.97278	166.27895	-118.25236	291.82144	168.16159	-190.26178	303.26886	164.75110	-166.03726	265.62900	166.65091	-59.62849	121.25771	204.51990	-88.59177	132.63477	288.99597	1.54324	107.83289	254.79820	-190.94272	41.91948	293.94519	-227.53720	48.43419	247.13211	-169.34727	33.56216	180.78923
596	4.95833	-297.32217	1016.43567	360.20331	-542.26422	991.14575	427.77698	-547.65747	676.98810	483.59384	-571.71960	637.01880	472.55945	-599.68536	704.74188	472.99783	-615.06189	662.83569	460.19357	-634.07739	540.82507	426.35132	-637.87183	547.98358	288.49643	-643.73163	373.01294	418.07306	-657.70490	327.94949	421.15497	-704.92743	385.64276	412.01520	-708.87872	339.37894	413.75574	-743.73792	93.40015	401.90833	-728.42267	89.50743	319.98703	-670.98413	48.70602	367.02222	-892.44849	81.50037	410.79404	-906.63080	109.96863	341.29050	-883.39563	88.51637	310.38336	-293.65182	1020.69324	258.69070	-517.02063	958.23456	163.84752	-308.80029	662.53381	117.17669	-309.30548	619.31140	125.26134	-371.24301	655.10760	116.25607	-361.65500	613.81012	122.88381	-316.20328	473.02441	168.15132	-330.56406	487.77213	287.46484	-142.59268	335.02286	166.20134	-123.73260	294.11008	168.11234	-196.03639	304.33572	164.46667	-171.11952	267.07339	166.56519	-62.15099	124.51332	203.75636	-91.53272	135.36345	288.25867	-0.91574	112.58640	254.16293	-191.36815	42.05914	293.74915	-227.61552	48.59400	246.92093	-169.73502	33.75990	180.85558
597	4.96667	-308.91898	1015.97516	361.12558	-554.10034	990.73608	428.56696	-556.15454	676.39868	484.83844	-579.49878	636.16479	473.33234	-608.59357	703.70361	474.40701	-623.34546	661.64001	461.29120	-641.69177	540.18756	427.12442	-645.95276	547.49628	289.18924	-649.32501	372.23264	418.69229	-662.82660	326.96097	421.64435	-710.42358	384.19772	412.72458	-714.18842	337.48694	414.02179	-745.51031	92.25776	401.74051	-730.08173	88.92708	320.47348	-671.96350	48.64579	366.95740	-893.88098	77.74490	411.36392	-908.84711	106.30260	341.76859	-885.43243	84.91285	311.00061	-305.34509	1019.96655	259.60760	-528.48236	956.54602	164.42279	-319.08163	662.01318	117.65666	-319.48218	618.73834	125.70241	-381.39111	654.12677	116.71030	-371.90247	613.08124	123.06490	-325.40579	472.35443	167.94043	-340.43216	486.34552	287.15805	-149.27571	337.32571	165.99466	-129.85300	296.86401	167.70280	-202.25240	305.64526	164.03191	-176.98676	269.39374	165.75894	-65.03941	128.07478	202.83580	-94.63723	138.36378	287.32541	-3.67458	117.83484	253.35579	-191.75977	42.17982	293.53345	-227.66624	48.90722	246.76445	-170.16948	34.01875	180.85077
598	4.97500	-320.53055	1015.84473	362.09631	-565.93396	990.47577	429.44299	-564.45721	675.89166	486.00485	-587.79236	635.72241	474.35748	-617.34338	702.77765	475.58804	-631.68579	660.66248	462.30820	-650.12030	539.81342	428.08618	-654.52747	547.11987	289.84317	-655.24908	371.72479	419.31815	-668.13623	326.19406	422.25357	-716.86743	382.84344	413.43454	-719.48669	336.45502	415.00681	-747.48114	91.25300	401.60394	-732.02563	88.38251	320.98535	-673.08960	48.84636	366.97577	-895.64679	73.58961	411.46234	-911.48889	101.67577	342.09705	-887.39099	81.11243	311.14047	-316.97318	1019.46191	260.54153	-540.20532	955.25049	165.30371	-329.72073	661.59637	118.21789	-329.94870	618.30365	126.07907	-392.09357	653.65894	116.87585	-382.35263	612.49634	123.37282	-335.49182	471.97983	167.37708	-350.87955	485.39935	287.07355	-156.62773	339.76031	165.59187	-136.29321	299.45572	167.22775	-208.82191	307.17188	163.42853	-182.59959	270.83170	165.38197	-68.34026	131.88785	201.77238	-98.26553	141.54306	286.14999	-6.84665	123.49362	252.29021	-192.24615	42.30462	293.35831	-227.68362	49.38918	246.72639	-170.73653	34.31383	180.79758
599	4.98333	-332.44189	1015.84491	363.01181	-577.73755	990.35095	430.28302	-572.91058	675.55286	486.79120	-595.88397	635.16357	475.10797	-625.42834	701.98535	476.39709	-639.67004	659.63831	463.07919	-658.66296	539.66632	429.05658	-662.96307	548.16272	289.23166	-661.23828	371.47305	420.07816	-673.37531	325.79117	422.89490	-723.05963	381.72028	414.21323	-725.09509	335.27328	415.65869	-748.95648	90.46235	401.52118	-733.64349	87.94511	321.37451	-673.78821	49.20508	366.95535	-897.44580	69.74552	411.23578	-913.98077	97.25668	342.17038	-889.40167	77.41120	310.89288	-328.73709	1019.17822	261.46085	-551.94305	954.24036	166.41460	-340.71335	661.21753	118.71089	-340.84283	617.92090	126.35586	-403.05249	652.91974	117.44077	-393.25244	612.00842	123.53822	-345.61041	471.31894	167.21257	-361.59842	484.35556	286.70621	-164.45511	342.37677	165.01262	-143.68594	302.20169	166.56212	-216.25696	308.62888	162.77289	-189.13533	272.96716	164.57532	-72.10622	135.98090	200.59668	-102.44213	144.96611	284.82346	-10.52136	129.67548	251.16217	-192.77898	42.45112	293.23010	-227.50323	50.05593	246.88637	-171.83908	34.50122	180.91121
600	4.99167	-344.17490	1016.15479	363.93036	-589.48987	990.27484	431.25351	-581.67255	675.34479	487.55087	-604.55640	634.82812	475.91644	-634.38971	701.57776	477.44638	-648.46588	659.20294	464.16306	-667.41034	539.49567	430.12161	-671.41077	547.28680	292.24203	-667.37592	371.41455	420.91080	-678.67981	325.61679	423.60068	-729.42273	380.68753	415.06366	-730.59308	334.21030	416.35599	-750.40173	89.77295	401.55652	-735.02057	87.60271	321.70938	-674.22559	49.58246	367.03754	-898.05707	66.26393	411.45911	-915.51263	93.91232	342.19501	-890.44922	74.53229	310.84045	-340.49557	1018.94849	262.39948	-563.76379	953.67657	167.62419	-352.14133	660.93372	119.10103	-352.23334	617.61804	126.56995	-414.85239	653.01050	117.51005	-404.56204	611.72980	123.62683	-355.95511	470.70126	167.20563	-373.03705	483.33698	286.49109	-172.92108	345.09528	164.37071	-151.03886	305.36121	165.66290	-223.96410	310.51971	161.84102	-196.23466	275.21436	163.62498	-76.50401	140.27470	199.28436	-107.11195	148.63422	283.29468	-15.15476	136.24089	249.97775	-193.38976	42.60796	293.11157	-227.38564	50.82431	247.24617	-172.56345	34.86898	180.88321
601	5.00000	-356.10074	1016.84106	364.64035	-601.28369	990.56952	432.42429	-591.07397	675.53461	488.50629	-613.71112	634.93475	476.87952	-643.63770	701.57727	478.51462	-657.70850	659.17743	465.23334	-676.35260	539.51282	431.36124	-680.54211	547.43433	293.21930	-673.54333	371.43188	421.87952	-684.29205	325.28378	424.39087	-735.41638	379.94388	415.89423	-736.20312	333.33047	417.10684	-751.92712	89.12169	401.78247	-736.55585	87.23064	322.14102	-675.08759	49.87574	367.18271	-899.16559	63.02652	411.66217	-916.53113	90.70013	342.37198	-891.46033	71.79310	311.01712	-352.34167	1018.84210	263.26160	-575.78186	953.39655	168.89647	-364.01508	660.75397	119.45108	-364.14044	617.33209	126.78447	-426.63715	652.82690	117.76657	-416.45731	611.46594	123.71022	-368.11050	469.89835	166.24985	-385.25986	481.87491	285.89453	-182.09776	348.01984	163.50899	-159.37991	308.53525	164.74001	-232.39996	312.41571	160.85440	-204.01367	277.72516	162.57631	-81.45477	144.95885	197.88712	-112.51281	152.58170	281.74329	-20.41213	143.32068	248.81335	-194.09735	42.80324	293.00491	-227.53697	51.28001	247.42816	-173.48859	35.10184	180.81090
602	5.00833	-367.77899	1017.36029	365.78281	-613.01434	991.17712	433.45551	-600.74158	676.18024	489.40161	-623.41272	635.34589	478.05661	-653.56989	701.89667	479.51974	-667.30554	659.30640	466.48651	-684.52808	539.39630	432.85486	-689.05383	547.85669	294.76648	-679.54987	371.43777	422.70428	-689.53204	325.15305	425.18027	-741.55670	379.04114	416.90958	-741.71246	332.09799	417.71292	-752.82452	88.82061	401.88193	-738.19171	86.85831	322.53650	-675.71912	50.40662	367.29337	-899.99316	59.44262	411.68857	-918.17041	86.79021	342.65900	-892.97955	68.55260	311.13855	-364.03012	1018.79749	264.04691	-588.03717	953.80414	170.84335	-376.42337	660.48077	119.77223	-376.53262	617.07843	126.80499	-439.06192	652.63892	117.90993	-429.03772	611.35248	122.20559	-380.57944	469.58578	165.36893	-398.02957	481.21661	285.96371	-192.01733	351.14651	162.68846	-168.49257	311.95972	163.82332	-241.44270	314.49600	159.71736	-212.34145	280.41974	161.32762	-87.08542	149.93457	196.50336	-118.69828	156.71851	279.97903	-26.59075	150.94215	247.46117	-194.89357	43.21410	292.91077	-227.95667	51.58177	247.35712	-175.02116	35.21283	180.89183
